<svg width="689" height="585" viewBox="0 0 689 585" fill="none" xmlns="http://www.w3.org/2000/svg">
<path d="M585.182 109.149H75V0H585.182V109.149Z" fill="white"/>
<path d="M141.108 82.3017C156.407 82.3017 168.809 69.8879 168.809 54.5746C168.809 39.2613 156.407 26.8475 141.108 26.8475C125.809 26.8475 113.407 39.2613 113.407 54.5746C113.407 69.8879 125.809 82.3017 141.108 82.3017Z" fill="#00709B"/>
<path d="M205.085 36.0898C203.86 36.0898 202.686 36.5767 201.82 37.4434C200.954 38.31 200.468 39.4854 200.468 40.711C200.468 41.9366 200.954 43.1121 201.82 43.9787C202.686 44.8453 203.86 45.3322 205.085 45.3322H542.168C543.39 45.3293 544.562 44.8412 545.425 43.9748C546.289 43.1085 546.774 41.9347 546.774 40.711C546.774 39.4873 546.289 38.3136 545.425 37.4472C544.562 36.5809 543.39 36.0927 542.168 36.0898H205.085Z" fill="#3F3D56"/>
<path d="M205.085 63.8169C203.86 63.8143 202.685 64.2987 201.817 65.1635C200.95 66.0283 200.461 67.2027 200.458 68.4283C200.456 69.6539 200.94 70.8304 201.804 71.6988C202.668 72.5673 203.841 73.0566 205.065 73.0592H418.173C418.78 73.0602 419.381 72.9415 419.942 72.7097C420.503 72.4779 421.013 72.1377 421.442 71.7085C421.872 71.2792 422.212 70.7695 422.445 70.2083C422.677 69.6471 422.797 69.0456 422.797 68.4381C422.797 67.8305 422.677 67.229 422.445 66.6678C422.212 66.1066 421.872 65.5969 421.442 65.1676C421.013 64.7384 420.503 64.3982 419.942 64.1664C419.381 63.9346 418.78 63.8159 418.173 63.8169H205.085Z" fill="#3F3D56"/>
<path d="M585.182 109.149H75V0H585.182V109.149ZM82.789 101.353H577.393V7.79637H82.789V101.353Z" fill="#CCCCCC"/>
<path d="M585.182 245.586H75V136.436H585.182V245.586Z" fill="white"/>
<path d="M141.108 218.738C156.407 218.738 168.809 206.324 168.809 191.011C168.809 175.698 156.407 163.284 141.108 163.284C125.809 163.284 113.407 175.698 113.407 191.011C113.407 206.324 125.809 218.738 141.108 218.738Z" fill="#E6E6E6"/>
<path d="M205.085 172.526C203.86 172.526 202.686 173.013 201.82 173.88C200.954 174.747 200.468 175.922 200.468 177.148C200.468 178.373 200.954 179.549 201.82 180.415C202.686 181.282 203.86 181.769 205.085 181.769H542.168C543.39 181.766 544.562 181.278 545.425 180.411C546.289 179.545 546.774 178.371 546.774 177.148C546.774 175.924 546.289 174.75 545.425 173.884C544.562 173.017 543.39 172.529 542.168 172.526H205.085Z" fill="#E6E6E6"/>
<path d="M205.085 200.253C203.86 200.251 202.685 200.735 201.817 201.6C200.95 202.465 200.461 203.639 200.458 204.865C200.456 206.09 200.94 207.267 201.804 208.135C202.668 209.004 203.841 209.493 205.065 209.496H418.173C418.78 209.497 419.381 209.378 419.942 209.146C420.503 208.914 421.013 208.574 421.442 208.145C421.872 207.716 422.212 207.206 422.445 206.645C422.677 206.084 422.797 205.482 422.797 204.875C422.797 204.267 422.677 203.666 422.445 203.104C422.212 202.543 421.872 202.033 421.442 201.604C421.013 201.175 420.503 200.835 419.942 200.603C419.381 200.371 418.78 200.252 418.173 200.253H205.085Z" fill="#E6E6E6"/>
<path d="M585.182 245.586H75V136.436H585.182V245.586ZM82.789 237.789H577.393V144.233H82.789V237.789Z" fill="#E6E6E6"/>
<path d="M585.182 382.022H75V272.873H585.182V382.022Z" fill="white"/>
<path d="M141.108 355.175C156.407 355.175 168.809 342.761 168.809 327.448C168.809 312.134 156.407 299.721 141.108 299.721C125.809 299.721 113.407 312.134 113.407 327.448C113.407 342.761 125.809 355.175 141.108 355.175Z" fill="#E6E6E6"/>
<path d="M205.085 308.963C203.86 308.963 202.686 309.45 201.82 310.316C200.954 311.183 200.468 312.358 200.468 313.584C200.468 314.81 200.954 315.985 201.82 316.852C202.686 317.718 203.86 318.205 205.085 318.205H542.168C543.39 318.202 544.562 317.714 545.425 316.848C546.289 315.981 546.774 314.808 546.774 313.584C546.774 312.36 546.289 311.187 545.425 310.32C544.562 309.454 543.39 308.966 542.168 308.963H205.085Z" fill="#E6E6E6"/>
<path d="M205.085 336.69C203.86 336.687 202.685 337.172 201.817 338.036C200.95 338.901 200.461 340.076 200.458 341.301C200.456 342.527 200.94 343.703 201.804 344.572C202.668 345.44 203.841 345.93 205.065 345.932H418.173C418.78 345.933 419.381 345.814 419.942 345.583C420.503 345.351 421.013 345.011 421.442 344.581C421.872 344.152 422.212 343.642 422.445 343.081C422.677 342.52 422.797 341.919 422.797 341.311C422.797 340.703 422.677 340.102 422.445 339.541C422.212 338.98 421.872 338.47 421.442 338.041C421.013 337.611 420.503 337.271 419.942 337.039C419.381 336.808 418.78 336.689 418.173 336.69H205.085Z" fill="#E6E6E6"/>
<path d="M585.182 382.022H75V272.873H585.182V382.022ZM82.789 374.226H577.393V280.669H82.789V374.226Z" fill="#E6E6E6"/>
<path d="M653.762 88.8789C672.715 88.8789 688.081 73.4993 688.081 54.5276C688.081 35.556 672.715 20.1764 653.762 20.1764C634.808 20.1764 619.443 35.556 619.443 54.5276C619.443 73.4993 634.808 88.8789 653.762 88.8789Z" fill="#F4FCFF"/>
<path d="M650.491 69.0278L640.22 55.809L646.192 51.1585L651.057 57.4177L667.486 40.0564L672.981 45.267L650.491 69.0278Z" fill="#007E9B"/>
<g filter="url(#filter0_d_7_186)">
<path d="M268 423C283.464 423 296 410.464 296 395C296 379.536 283.464 367 268 367C252.536 367 240 379.536 240 395C240 410.464 252.536 423 268 423Z" fill="#F4FCFF"/>
<path d="M295 395C295 409.912 282.912 422 268 422C253.088 422 241 409.912 241 395C241 380.088 253.088 368 268 368C282.912 368 295 380.088 295 395Z" stroke="#007E9B" stroke-width="2"/>
</g>
<path d="M265.465 407L257 396.05L261.922 392.197L265.931 397.382L279.471 383L284 387.316L265.465 407Z" fill="#007E9B"/>
<path d="M114.198 382.841C113.262 381.621 112.601 380.207 112.262 378.699C111.922 377.191 111.913 375.626 112.234 374.115C112.556 372.603 113.2 371.181 114.122 369.949C115.043 368.717 116.22 367.705 117.569 366.984L115.391 342.911L129.49 338L132.095 372.04C133.138 374.42 133.285 377.104 132.507 379.586C131.73 382.067 130.082 384.173 127.876 385.505C125.67 386.836 123.059 387.3 120.538 386.809C118.017 386.318 115.762 384.907 114.198 382.841Z" fill="#FFB8B8"/>
<path d="M129.591 245.687C129.591 245.687 139.276 225.379 147.882 232.523C156.488 239.666 136.084 299.711 136.084 299.711L132.98 358L116.624 356.367L112 299.577L129.591 245.687Z" fill="#CCCCCC"/>
<path d="M-1 547.286L11.1786 557L55 515.337L37.0259 501L-1 547.286Z" fill="#FFB8B8"/>
<path d="M-0.950061 541L23.5508 560.591L23.5518 560.591C27.6924 563.903 30.3319 568.703 30.8896 573.937C31.4473 579.17 29.8775 584.408 26.5256 588.499L26.1149 589L-14 556.925L-0.950061 541Z" fill="#2F2E41"/>
<path d="M168.003 575H184.264L192 514L168 514.001L168.003 575Z" fill="#FFB8B8"/>
<path d="M165 569.001L195.538 569H195.539C200.7 569 205.65 571.041 209.3 574.673C212.949 578.306 215 583.232 215 588.369V588.998L165.001 589L165 569.001Z" fill="#2F2E41"/>
<path d="M196.1 291C196.1 291 225.478 326.838 219.091 362.677C212.705 398.515 207.596 425.393 207.596 425.393L197.377 506.029C197.377 506.029 201.209 527.99 196.1 533.649C196.1 533.649 203.764 546.987 189.713 552.107C175.663 557.227 168.082 550.338 168.082 550.338C168.082 550.338 157.781 535.468 164.167 531.628L166.858 373.382L64.5376 507.309C64.5376 507.309 62.6568 523.6 49.5468 523.775L33.8823 535.468L16 525.229L24.9411 513.709C24.9411 513.709 19.8319 500.91 31.3277 498.35L97.7476 411.314L114.353 366.516C114.353 366.516 123.294 331.958 147.562 317.879V302.897L196.1 291Z" fill="#2F2E41"/>
<path d="M145.12 229.603C148.977 225.05 154.377 222.073 160.29 221.239C166.204 220.405 172.218 221.772 177.187 225.081L178.245 225.786C189.554 238.577 197.154 254.207 200.229 270.992L205 297.045L145.12 310L131.082 261.645C129.3 255.508 129.729 248.941 132.294 243.086C134.859 237.232 139.397 232.461 145.12 229.603V229.603Z" fill="#CCCCCC"/>
<path d="M244.146 387.386C242.482 386.847 240.957 385.954 239.679 384.769C238.402 383.584 237.402 382.136 236.751 380.527C236.1 378.918 235.812 377.187 235.91 375.456C236.007 373.726 236.487 372.037 237.314 370.51L220 349.528L230.311 336L254.342 365.97C256.841 367.517 258.681 369.918 259.512 372.718C260.343 375.518 260.107 378.523 258.85 381.162C257.594 383.802 255.403 385.894 252.692 387.041C249.982 388.188 246.941 388.31 244.146 387.386H244.146Z" fill="#FFB8B8"/>
<path d="M171.54 248.316C171.54 248.316 167.703 222.769 180.493 224.046C193.283 225.324 212.467 295.578 212.467 295.578L247 353.059L230.373 362L189.445 310.906L171.54 248.316Z" fill="#CCCCCC"/>
<path d="M194.299 211H133.701C132.455 210.999 131.26 210.501 130.379 209.618C129.497 208.734 129.001 207.536 129 206.286V180.095C129 170.787 132.687 161.861 139.251 155.279C145.815 148.698 154.717 145 164 145C173.283 145 182.185 148.698 188.749 155.279C195.313 161.861 199 170.787 199 180.095V206.286C198.999 207.536 198.503 208.734 197.621 209.618C196.74 210.501 195.545 210.999 194.299 211Z" fill="#2F2E41"/>
<path d="M171.5 210C185.583 210 197 198.583 197 184.5C197 170.417 185.583 159 171.5 159C157.417 159 146 170.417 146 184.5C146 198.583 157.417 210 171.5 210Z" fill="#FFB8B8"/>
<path d="M208 183H174.98L174.642 177.72L172.949 183H167.864L167.193 172.534L163.838 183H154V182.481C154 167.328 165.068 155 178.672 155H183.328C196.932 155 208 167.328 208 182.481V183Z" fill="#2F2E41"/>
<path d="M177.238 215.999C176.837 215.999 176.437 215.968 176.041 215.907L137 209.936V169.554C137 165.429 138.65 161.473 141.587 158.556C144.525 155.639 148.509 154 152.663 154H179.977L178.913 155.075C164.109 170.043 175.262 194.312 183.227 207.447C183.812 208.391 184.076 209.496 183.981 210.6C183.886 211.705 183.436 212.75 182.698 213.581C182.02 214.354 181.18 214.972 180.237 215.389C179.294 215.807 178.271 216.015 177.238 215.999Z" fill="#2F2E41"/>
<defs>
<filter id="filter0_d_7_186" x="227" y="358" width="82" height="82" filterUnits="userSpaceOnUse" color-interpolation-filters="sRGB">
<feFlood flood-opacity="0" result="BackgroundImageFix"/>
<feColorMatrix in="SourceAlpha" type="matrix" values="0 0 0 0 0 0 0 0 0 0 0 0 0 0 0 0 0 0 127 0" result="hardAlpha"/>
<feOffset dy="4"/>
<feGaussianBlur stdDeviation="6.5"/>
<feComposite in2="hardAlpha" operator="out"/>
<feColorMatrix type="matrix" values="0 0 0 0 0 0 0 0 0 0.494118 0 0 0 0 0.607843 0 0 0 0.1 0"/>
<feBlend mode="normal" in2="BackgroundImageFix" result="effect1_dropShadow_7_186"/>
<feBlend mode="normal" in="SourceGraphic" in2="effect1_dropShadow_7_186" result="shape"/>
</filter>
</defs>
</svg>
