<svg width="88" height="74" viewBox="0 0 88 74" fill="none" xmlns="http://www.w3.org/2000/svg">
<path d="M0.795455 56.6634V54.4545H12.4006V56.6634H7.90483V69H5.29119V56.6634H0.795455ZM17.7006 69.2131C16.6353 69.2131 15.712 68.9787 14.9308 68.5099C14.1495 68.0412 13.5434 67.3854 13.1126 66.5426C12.6864 65.6998 12.4734 64.715 12.4734 63.5881C12.4734 62.4612 12.6864 61.474 13.1126 60.6264C13.5434 59.7789 14.1495 59.1207 14.9308 58.652C15.712 58.1832 16.6353 57.9489 17.7006 57.9489C18.766 57.9489 19.6893 58.1832 20.4705 58.652C21.2518 59.1207 21.8555 59.7789 22.2816 60.6264C22.7125 61.474 22.9279 62.4612 22.9279 63.5881C22.9279 64.715 22.7125 65.6998 22.2816 66.5426C21.8555 67.3854 21.2518 68.0412 20.4705 68.5099C19.6893 68.9787 18.766 69.2131 17.7006 69.2131ZM17.7148 67.1534C18.2925 67.1534 18.7754 66.9948 19.1637 66.6776C19.552 66.3556 19.8408 65.9247 20.0302 65.3849C20.2243 64.8452 20.3214 64.2438 20.3214 63.581C20.3214 62.9134 20.2243 62.3097 20.0302 61.7699C19.8408 61.2254 19.552 60.7921 19.1637 60.4702C18.7754 60.1482 18.2925 59.9872 17.7148 59.9872C17.123 59.9872 16.6306 60.1482 16.2376 60.4702C15.8493 60.7921 15.5581 61.2254 15.364 61.7699C15.1746 62.3097 15.0799 62.9134 15.0799 63.581C15.0799 64.2438 15.1746 64.8452 15.364 65.3849C15.5581 65.9247 15.8493 66.3556 16.2376 66.6776C16.6306 66.9948 17.123 67.1534 17.7148 67.1534ZM29.1584 69.1918C28.3014 69.1918 27.5343 68.9716 26.8572 68.5312C26.1802 68.0909 25.6451 67.4517 25.2521 66.6136C24.8591 65.7756 24.6626 64.7576 24.6626 63.5597C24.6626 62.3475 24.8615 61.3248 25.2592 60.4915C25.6617 59.6534 26.2038 59.0213 26.8857 58.5952C27.5675 58.1643 28.3274 57.9489 29.1655 57.9489C29.8047 57.9489 30.3303 58.0578 30.7422 58.2756C31.1541 58.4886 31.4808 58.7467 31.7223 59.0497C31.9638 59.348 32.1508 59.6297 32.2834 59.8949H32.3899V54.4545H34.968V69H32.4396V67.2812H32.2834C32.1508 67.5464 31.959 67.8281 31.7081 68.1264C31.4571 68.42 31.1257 68.6709 30.7138 68.8793C30.3018 69.0876 29.7834 69.1918 29.1584 69.1918ZM29.8757 67.0824C30.4202 67.0824 30.8842 66.9356 31.2678 66.642C31.6513 66.3437 31.9425 65.9295 32.1413 65.3991C32.3402 64.8688 32.4396 64.2509 32.4396 63.5455C32.4396 62.84 32.3402 62.2268 32.1413 61.706C31.9472 61.1851 31.6584 60.7803 31.2749 60.4915C30.8961 60.2027 30.4297 60.0582 29.8757 60.0582C29.3028 60.0582 28.8246 60.2074 28.4411 60.5057C28.0575 60.804 27.7687 61.2159 27.5746 61.7415C27.3804 62.267 27.2834 62.8684 27.2834 63.5455C27.2834 64.2273 27.3804 64.8357 27.5746 65.3707C27.7734 65.901 28.0646 66.3201 28.4482 66.6278C28.8364 66.9309 29.3123 67.0824 29.8757 67.0824ZM42.4663 69.2131C41.4009 69.2131 40.4776 68.9787 39.6964 68.5099C38.9151 68.0412 38.3091 67.3854 37.8782 66.5426C37.4521 65.6998 37.239 64.715 37.239 63.5881C37.239 62.4612 37.4521 61.474 37.8782 60.6264C38.3091 59.7789 38.9151 59.1207 39.6964 58.652C40.4776 58.1832 41.4009 57.9489 42.4663 57.9489C43.5316 57.9489 44.4549 58.1832 45.2362 58.652C46.0174 59.1207 46.6211 59.7789 47.0472 60.6264C47.4781 61.474 47.6935 62.4612 47.6935 63.5881C47.6935 64.715 47.4781 65.6998 47.0472 66.5426C46.6211 67.3854 46.0174 68.0412 45.2362 68.5099C44.4549 68.9787 43.5316 69.2131 42.4663 69.2131ZM42.4805 67.1534C43.0581 67.1534 43.5411 66.9948 43.9293 66.6776C44.3176 66.3556 44.6064 65.9247 44.7958 65.3849C44.9899 64.8452 45.087 64.2438 45.087 63.581C45.087 62.9134 44.9899 62.3097 44.7958 61.7699C44.6064 61.2254 44.3176 60.7921 43.9293 60.4702C43.5411 60.1482 43.0581 59.9872 42.4805 59.9872C41.8886 59.9872 41.3962 60.1482 41.0032 60.4702C40.6149 60.7921 40.3237 61.2254 40.1296 61.7699C39.9402 62.3097 39.8455 62.9134 39.8455 63.581C39.8455 64.2438 39.9402 64.8452 40.1296 65.3849C40.3237 65.9247 40.6149 66.3556 41.0032 66.6776C41.3962 66.9948 41.8886 67.1534 42.4805 67.1534ZM51.1737 69H48.3612L53.4819 54.4545H56.7347L61.8626 69H59.0501L55.1651 57.4375H55.0515L51.1737 69ZM51.266 63.2969H58.9364V65.4134H51.266V63.2969ZM63.6648 73.0909V58.0909H66.1932V59.8949H66.3423C66.4749 59.6297 66.6619 59.348 66.9034 59.0497C67.1449 58.7467 67.4716 58.4886 67.8835 58.2756C68.2955 58.0578 68.821 57.9489 69.4602 57.9489C70.303 57.9489 71.063 58.1643 71.7401 58.5952C72.4219 59.0213 72.9616 59.6534 73.3594 60.4915C73.7618 61.3248 73.9631 62.3475 73.9631 63.5597C73.9631 64.7576 73.7666 65.7756 73.3736 66.6136C72.9806 67.4517 72.4455 68.0909 71.7685 68.5312C71.0914 68.9716 70.3243 69.1918 69.4673 69.1918C68.8423 69.1918 68.3239 69.0876 67.9119 68.8793C67.5 68.6709 67.1686 68.42 66.9176 68.1264C66.6714 67.8281 66.4796 67.5464 66.3423 67.2812H66.2358V73.0909H63.6648ZM66.1861 63.5455C66.1861 64.2509 66.2855 64.8688 66.4844 65.3991C66.688 65.9295 66.9792 66.3437 67.358 66.642C67.7415 66.9356 68.2055 67.0824 68.75 67.0824C69.3182 67.0824 69.794 66.9309 70.1776 66.6278C70.5611 66.3201 70.8499 65.901 71.044 65.3707C71.2429 64.8357 71.3423 64.2273 71.3423 63.5455C71.3423 62.8684 71.2453 62.267 71.0511 61.7415C70.857 61.2159 70.5682 60.804 70.1847 60.5057C69.8011 60.2074 69.3229 60.0582 68.75 60.0582C68.2008 60.0582 67.7344 60.2027 67.3509 60.4915C66.9673 60.7803 66.6761 61.1851 66.4773 61.706C66.2831 62.2268 66.1861 62.84 66.1861 63.5455ZM76.1648 73.0909V58.0909H78.6932V59.8949H78.8423C78.9749 59.6297 79.1619 59.348 79.4034 59.0497C79.6449 58.7467 79.9716 58.4886 80.3835 58.2756C80.7955 58.0578 81.321 57.9489 81.9602 57.9489C82.803 57.9489 83.563 58.1643 84.2401 58.5952C84.9219 59.0213 85.4616 59.6534 85.8594 60.4915C86.2618 61.3248 86.4631 62.3475 86.4631 63.5597C86.4631 64.7576 86.2666 65.7756 85.8736 66.6136C85.4806 67.4517 84.9455 68.0909 84.2685 68.5312C83.5914 68.9716 82.8243 69.1918 81.9673 69.1918C81.3423 69.1918 80.8239 69.0876 80.4119 68.8793C80 68.6709 79.6686 68.42 79.4176 68.1264C79.1714 67.8281 78.9796 67.5464 78.8423 67.2812H78.7358V73.0909H76.1648ZM78.6861 63.5455C78.6861 64.2509 78.7855 64.8688 78.9844 65.3991C79.188 65.9295 79.4792 66.3437 79.858 66.642C80.2415 66.9356 80.7055 67.0824 81.25 67.0824C81.8182 67.0824 82.294 66.9309 82.6776 66.6278C83.0611 66.3201 83.3499 65.901 83.544 65.3707C83.7429 64.8357 83.8423 64.2273 83.8423 63.5455C83.8423 62.8684 83.7453 62.267 83.5511 61.7415C83.357 61.2159 83.0682 60.804 82.6847 60.5057C82.3011 60.2074 81.8229 60.0582 81.25 60.0582C80.7008 60.0582 80.2344 60.2027 79.8509 60.4915C79.4673 60.7803 79.1761 61.1851 78.9773 61.706C78.7831 62.2268 78.6861 62.84 78.6861 63.5455Z" fill="#007E9B"/>
<path d="M10 22.7548L26.5897 39L30.7742 34.8733L14.2142 18.6572L10 22.7548ZM74.7858 0L43.3871 30.7757L31.0413 18.6572L26.7974 22.7548L43.3871 39L79 4.12668L74.7858 0ZM62.2026 4.12668L58.0181 0L39.1729 18.4538L43.3871 22.5514L62.2026 4.12668Z" fill="#007E9B"/>
</svg>
